<?xml version="1.0" standalone="no"?>
<!DOCTYPE svg PUBLIC "-//W3C//DTD SVG 20010904//EN"
 "http://www.w3.org/TR/2001/REC-SVG-20010904/DTD/svg10.dtd">
<svg version="1.0" xmlns="http://www.w3.org/2000/svg"
 width="512.000000pt" height="512.000000pt" viewBox="0 0 512.000000 512.000000"
 preserveAspectRatio="xMidYMid meet">
<metadata>
Created by potrace 1.14, written by Peter Selinger 2001-2017
</metadata>
<g transform="translate(0.000000,512.000000) scale(0.100000,-0.100000)"
fill="#000000" stroke="none">
<path d="M2517 5069 c-116 -149 -246 -385 -305 -555 -35 -102 -82 -276 -82
-305 0 -25 -8 -24 -32 4 -72 83 -173 179 -263 250 -33 26 -65 51 -71 56 -43
35 -188 121 -284 170 -130 66 -188 87 -200 75 -23 -23 -34 -414 -17 -569 10
-89 50 -269 81 -365 14 -41 24 -76 23 -77 -2 -1 -45 11 -97 28 -89 27 -243 62
-335 74 -130 17 -412 13 -558 -9 -38 -6 -39 -7 -22 -40 8 -16 15 -32 15 -37 0
-5 24 -59 54 -119 63 -127 155 -271 247 -384 66 -83 236 -256 251 -256 4 0 8
-4 8 -10 0 -5 -17 -12 -37 -15 -74 -13 -229 -57 -318 -91 -81 -31 -284 -127
-310 -146 -5 -4 -50 -34 -100 -67 -50 -33 -107 -74 -128 -93 l-37 -33 67 -50
c120 -89 195 -135 329 -200 135 -67 351 -144 464 -166 36 -6 66 -13 67 -14 2
-1 -52 -57 -120 -126 -129 -131 -204 -224 -289 -361 -64 -104 -159 -300 -161
-336 -2 -24 2 -27 48 -35 28 -5 145 -10 260 -11 187 -1 245 2 335 19 14 3 41
7 60 10 58 10 231 55 268 71 19 8 37 13 39 11 2 -2 -4 -24 -12 -48 -18 -49
-62 -217 -69 -264 -29 -170 -34 -237 -31 -405 2 -91 6 -185 10 -210 9 -67 14
-92 17 -96 10 -10 255 109 368 179 140 87 246 174 387 317 69 71 93 90 94 75
0 -11 2 -27 4 -35 21 -94 30 -130 61 -225 65 -199 191 -437 313 -593 l49 -63
42 53 c180 226 325 540 380 821 6 31 16 57 21 57 5 0 9 -3 9 -8 0 -8 148 -161
196 -202 179 -154 398 -288 581 -358 l52 -20 6 37 c18 111 22 193 19 346 -2
94 -5 181 -8 195 -2 14 -7 45 -11 70 -12 81 -33 173 -64 275 -16 55 -29 101
-28 102 2 1 36 -9 77 -23 79 -26 261 -68 345 -79 28 -4 131 -8 230 -10 160 -3
231 1 342 20 l32 6 -35 82 c-117 272 -306 537 -513 719 -46 40 -49 48 -22 48
38 0 257 62 355 101 181 72 404 199 514 294 l43 37 -43 31 c-24 17 -45 34 -48
38 -16 21 -212 139 -315 189 -98 48 -287 120 -355 135 -8 2 -51 12 -95 21
l-81 17 46 41 c224 201 424 486 529 753 l20 51 -22 5 c-112 28 -499 29 -637 2
-14 -3 -47 -9 -75 -15 -76 -14 -236 -58 -277 -75 -22 -9 -22 -11 2 58 25 70
68 245 76 307 3 25 9 72 14 105 17 129 7 458 -16 537 -6 21 -14 18 -203 -75
-214 -105 -386 -231 -558 -411 -65 -67 -93 -91 -93 -77 0 42 -64 263 -111 382
-54 139 -145 305 -234 428 -86 119 -83 118 -128 60z"/>
</g>
</svg>
